<svg width="24" height="24" viewBox="0 0 24 24" fill="none" xmlns="http://www.w3.org/2000/svg">
<g clip-path="url(#clip0_207_9679)">
<path d="M3.50002 20.5L18.0355 5.96446M3.50002 20.5L4.79091 19.2091C5.85263 18.1474 6.06121 16.5017 5.29794 15.2087M3.50002 20.5L7.66571 16.3343C8.63627 15.3637 8.63627 13.7902 7.66571 12.8196M3.50002 20.5L11.2012 12.7988C11.7813 12.2187 11.7813 11.2783 11.2012 10.6983M3.50002 20.5L15.7974 8.20258C16.1822 7.8178 16.1822 7.19396 15.7974 6.80918M3.50002 20.5L14.3832 9.61679C14.768 9.23202 14.768 8.60817 14.3832 8.2234M3.50002 20.5L4.80582 19.1942C5.86575 18.1343 7.49821 17.9015 8.81215 18.6229M3.50002 20.5L7.64489 16.3551C8.62695 15.3731 10.2192 15.3731 11.2012 16.3551M3.50002 20.5L11.1804 12.8196C11.772 12.2281 12.731 12.2281 13.3226 12.8196M3.50002 20.5L15.7766 8.2234C16.1729 7.82712 16.8154 7.82712 17.2116 8.2234M3.50002 20.5L14.3624 9.63761C14.7587 9.24134 15.4012 9.24134 15.7974 9.63761M6.59319 11.7259L7.12588 12.6137C7.55211 13.3241 7.32176 14.2455 6.61139 14.6717C6.37827 14.8116 6.11151 14.8855 5.83964 14.8855L4.77425 14.8855C3.94583 14.8855 3.27426 14.2139 3.27426 13.3855C3.27426 13.1136 3.34814 12.8468 3.48802 12.6137L4.02071 11.7259C4.44693 11.0155 5.36832 10.7852 6.07869 11.2114M6.59319 11.7259C6.46651 11.5148 6.28982 11.3381 6.07869 11.2114M6.59319 11.7259L6.99877 12.4043C7.13414 12.4445 7.27751 12.466 7.42591 12.466L8.49129 12.466C8.76316 12.466 9.02992 12.3921 9.26304 12.2523C9.97341 11.8261 10.2038 10.9047 9.77753 10.1943M6.07869 11.2114C6.03212 11.1834 5.98464 11.1583 5.93646 11.136C5.92916 11.0807 5.92591 11.0238 5.92591 10.966C5.92591 10.6942 5.99979 10.4274 6.13967 10.1943L6.67236 9.30647C7.09858 8.5961 8.01997 8.36575 8.73034 8.79197M11.4071 16.8949L12.2949 17.4276C12.5061 17.5543 12.6828 17.731 12.8094 17.9421C13.2357 18.6525 13.0053 19.5739 12.2949 20.0001M11.4071 16.8949C10.6968 16.4687 9.77536 16.6991 9.34914 17.4094C9.20926 17.6426 9.13538 17.9093 9.13538 18.1812L9.13538 19.2466C9.13538 20.075 9.80695 20.7466 10.6354 20.7466C10.9072 20.7466 11.174 20.6727 11.4071 20.5328L12.2949 20.0001M11.4071 16.8949L11.6162 17.0211C11.5762 16.886 11.5548 16.743 11.5548 16.5949L11.5548 15.5295C11.5548 15.2577 11.6287 14.9909 11.7686 14.7578C12.1948 14.0474 13.1162 13.8171 13.8265 14.2433M12.2949 20.0001C12.9587 19.6018 13.2034 18.7712 12.884 18.0853C12.94 18.0917 12.997 18.0949 13.0548 18.0949C13.3267 18.0949 13.5934 18.021 13.8265 17.8812L14.7144 17.3485C15.4247 16.9222 15.6551 16.0009 15.2289 15.2905M9.77753 10.1943L9.24484 9.30647C9.11816 9.09534 8.94147 8.91865 8.73034 8.79197M9.77753 10.1943C9.80605 10.2418 9.83163 10.2903 9.85432 10.3395L9.96144 10.3447L11.0268 10.3447C11.2987 10.3447 11.5654 10.2708 11.7986 10.131C12.5089 9.70473 12.7393 8.78334 12.3131 8.07297L11.7804 7.18515C11.6537 6.97402 11.477 6.79733 11.2659 6.67065C10.5555 6.24443 9.63412 6.47478 9.20789 7.18515L8.6752 8.07297C8.56563 8.25559 8.49655 8.45884 8.47301 8.66888C8.56093 8.70108 8.64709 8.74202 8.73034 8.79197M15.2289 15.2905C15.1022 15.0794 14.9255 14.9027 14.7144 14.776L13.8265 14.2433M15.2289 15.2905C15.2788 15.3737 15.3197 15.4599 15.3518 15.5491C15.562 15.5243 15.7652 15.4552 15.9479 15.3456L16.8357 14.8129C17.5461 14.3867 17.7764 13.4653 17.3502 12.755C17.2235 12.5438 17.0468 12.3671 16.8357 12.2405L15.9479 11.7078C15.2375 11.2815 14.3161 11.5119 13.8899 12.2223C13.75 12.4554 13.6761 12.7221 13.6761 12.994L13.6761 14.0594L13.6813 14.1665C13.7305 14.1892 13.779 14.2148 13.8265 14.2433M14.6484 5.83691C15.063 6.52788 14.8389 7.42411 14.1479 7.8387C13.9212 7.97475 13.6617 8.04662 13.3973 8.04662L13.2479 8.04662C12.442 8.04662 11.7888 7.39339 11.7888 6.58758C11.7888 6.32314 11.8607 6.06367 11.9967 5.83691C12.4361 5.10468 13.3858 4.86724 14.1181 5.30658C14.3357 5.43715 14.5178 5.61929 14.6484 5.83691ZM18.891 10.0796C19.3056 10.7705 19.0816 11.6668 18.3906 12.0813C18.1638 12.2174 17.9044 12.2893 17.6399 12.2893L17.4905 12.2893C16.6847 12.2893 16.0315 11.636 16.0315 10.8302C16.0315 10.5658 16.1033 10.3063 16.2394 10.0796C16.6787 9.34732 17.6285 9.10988 18.3607 9.54922C18.5783 9.67979 18.7605 9.86193 18.891 10.0796ZM17.4768 4.4227C17.8914 5.11367 17.6673 6.0099 16.9764 6.42448C16.7496 6.56054 16.4901 6.63241 16.2257 6.63241L16.0763 6.63241C15.2705 6.63241 14.6172 5.97917 14.6172 5.17337C14.6172 4.90892 14.6891 4.64945 14.8252 4.4227C15.2645 3.69046 16.2142 3.45303 16.9465 3.89237C17.1641 4.02294 17.3462 4.20508 17.4768 4.4227ZM20.3052 7.25112C20.7198 7.9421 20.4958 8.83833 19.8048 9.25291C19.578 9.38896 19.3186 9.46083 19.0541 9.46083L18.9047 9.46083C18.0989 9.46083 17.4457 8.8076 17.4457 8.00179C17.4457 7.73735 17.5175 7.47788 17.6536 7.25112C18.0929 6.51889 19.0427 6.28145 19.7749 6.72079C19.9925 6.85137 20.1747 7.0335 20.3052 7.25112ZM21.0123 3.71559C21.4269 4.40656 21.2029 5.30279 20.5119 5.71738C20.2851 5.85343 20.0257 5.9253 19.7612 5.9253L19.6118 5.9253C18.806 5.9253 18.1528 5.27207 18.1528 4.46626C18.1528 4.20182 18.2246 3.94235 18.3607 3.71559C18.8 2.98336 19.7498 2.74592 20.482 3.18526C20.6996 3.31583 20.8818 3.49797 21.0123 3.71559Z" stroke="#904299" stroke-linecap="round"/>
</g>
<defs>
<clipPath id="clip0_207_9679">
<rect width="24" height="24" fill="white"/>
</clipPath>
</defs>
</svg>
