<svg width="24" height="24" viewBox="0 0 24 24" fill="none" xmlns="http://www.w3.org/2000/svg">
<path d="M9.99998 3H15M11 10.0731V3H14V10L19.044 17.9262C19.637 18.8581 19.3623 20.0943 18.4304 20.6873C18.1095 20.8915 17.737 21 17.3566 21H7.65643C6.55186 21 5.65643 20.1046 5.65643 19C5.65643 18.6176 5.76608 18.2432 5.97237 17.9211L11 10.0731ZM7.84998 15H17.2L19.0556 17.9299C19.6466 18.8631 19.3692 20.0986 18.4361 20.6896C18.116 20.8924 17.7448 21 17.3659 21H7.65965C6.55508 21 5.65965 20.1046 5.65965 19C5.65965 18.6171 5.76958 18.2422 5.97638 17.9199L7.84998 15Z" stroke="black" stroke-linecap="round"/>
</svg>
